<?xml version="1.0" encoding="UTF-8"?>
<svg id="g-AvalaraInfographic_Section05-large-img" xmlns="http://www.w3.org/2000/svg" baseProfile="tiny" version="1.2" viewBox="0 0 800 124.039">
  <!-- Generator: Adobe Illustrator 29.0.0, SVG Export Plug-In . SVG Version: 2.1.0 Build 186)  -->
  <g id="takeaway">
    <g>
      <rect x="40.269" y="19.84" width="719.461" height="84.358" rx="9.5" ry="9.5" fill="#fff"/>
      <path d="M750.231,20.341c4.963,0,9,4.037,9,9v65.358c0,4.963-4.037,9-9,9H49.769c-4.963,0-9-4.037-9-9V29.341c0-4.963,4.037-9,9-9h700.462M750.231,19.341H49.769c-5.523,0-10,4.477-10,10v65.358c0,5.523,4.477,10,10,10h700.462c5.523,0,10-4.477,10-10V29.341c0-5.523-4.477-10-10-10h0Z" fill="#fc6600"/>
    </g>
    <path d="M97.531,19.341h178.848v84.148H97.531c-5.666,0-10.265-4.6-10.265-10.265V29.606c0-5.666,4.6-10.265,10.265-10.265Z" fill="#fc6600"/>
    <g>
      <rect x="40.269" y="19.84" width="61.788" height="84.358" rx="9.5" ry="9.5" fill="#fff"/>
      <path d="M92.557,20.341c4.963,0,9,4.037,9,9v65.358c0,4.963-4.037,9-9,9h-42.788c-4.963,0-9-4.037-9-9V29.341c0-4.963,4.037-9,9-9h42.788M92.557,19.341h-42.788c-5.523,0-10,4.477-10,10v65.358c0,5.523,4.477,10,10,10h42.788c5.523,0,10-4.477,10-10V29.341c0-5.523-4.477-10-10-10h0Z" fill="#fc6600"/>
    </g>
    <g>
      <path d="M86.28,55.894c0-8.931-7.745-16.053-16.885-15.016-6.785.77-12.328,6.208-13.214,12.979-.848,6.486,2.424,12.287,7.557,15.187,1.278.722,2.126,2.018,2.126,3.486v5.662c0,.687.557,1.244,1.244,1.244h8.113c.687,0,1.244-.557,1.244-1.244v-5.738c0-1.424.824-2.682,2.067-3.377,4.621-2.583,7.749-7.512,7.749-13.183Z" fill="#fc6600"/>
      <path d="M74.869,46.669s4.261.867,6.571,6.066" fill="none" stroke="#fff" stroke-linecap="round" stroke-miterlimit="10" stroke-width="2"/>
      <line x1="65.479" y1="75.028" x2="77.106" y2="75.028" fill="none" stroke="#fff" stroke-linecap="round" stroke-miterlimit="10" stroke-width="2"/>
    </g>
  </g>
</svg>
