<?xml version="1.0" encoding="UTF-8"?>
<svg id="g-AvalaraInfographic_Section17-large-img" xmlns="http://www.w3.org/2000/svg" baseProfile="tiny" version="1.2" viewBox="0 0 800 130.451">
  <!-- Generator: Adobe Illustrator 29.0.0, SVG Export Plug-In . SVG Version: 2.1.0 Build 186)  -->
  <g id="takeaway">
    <g>
      <rect x="40.298" y="22.353" width="719.403" height="84.3" rx="9.471" ry="9.471" fill="#fff"/>
      <path d="M750.231,22.882c4.931,0,8.942,4.011,8.942,8.942v65.358c0,4.931-4.011,8.942-8.942,8.942H49.769c-4.931,0-8.942-4.011-8.942-8.942V31.824c0-4.931,4.011-8.942,8.942-8.942h700.462M750.231,21.824H49.769c-5.523,0-10,4.477-10,10v65.358c0,5.523,4.477,10,10,10h700.462c5.523,0,10-4.477,10-10V31.824c0-5.523-4.477-10-10-10h0Z" fill="#fc6600"/>
    </g>
    <path d="M97.531,21.824h176.848v84.148H97.531c-5.666,0-10.265-4.6-10.265-10.265v-63.617c0-5.666,4.6-10.265,10.265-10.265Z" fill="#fc6600"/>
    <g>
      <rect x="40.282" y="22.336" width="57.958" height="84.333" rx="9.487" ry="9.487" fill="#fff"/>
      <path d="M88.753,22.849c4.949,0,8.975,4.026,8.975,8.975v65.358c0,4.949-4.026,8.975-8.975,8.975h-38.984c-4.949,0-8.975-4.026-8.975-8.975V31.824c0-4.949,4.026-8.975,8.975-8.975h38.984M88.753,21.824h-38.984c-5.523,0-10,4.477-10,10v65.358c0,5.523,4.477,10,10,10h38.984c5.523,0,10-4.477,10-10V31.824c0-5.523-4.477-10-10-10h0Z" fill="#fc6600"/>
    </g>
    <g>
      <path d="M84.377,59.378c0-8.931-7.745-16.053-16.885-15.016-6.785.77-12.328,6.208-13.214,12.979-.848,6.486,2.424,12.287,7.557,15.187,1.278.722,2.126,2.018,2.126,3.486v5.662c0,.687.557,1.244,1.244,1.244h8.113c.687,0,1.244-.557,1.244-1.244v-5.738c0-1.424.824-2.682,2.067-3.377,4.621-2.583,7.749-7.512,7.749-13.183Z" fill="#fc6600"/>
      <path d="M72.967,50.152s4.261.867,6.571,6.066" fill="none" stroke="#fff" stroke-linecap="round" stroke-miterlimit="10" stroke-width="1.94"/>
      <line x1="63.576" y1="78.511" x2="75.204" y2="78.511" fill="none" stroke="#fff" stroke-linecap="round" stroke-miterlimit="10" stroke-width="1.94"/>
    </g>
  </g>
</svg>
