<?xml version="1.0" encoding="UTF-8"?>
<svg id="g-AvalaraInfographic_Section10-small-img" xmlns="http://www.w3.org/2000/svg" baseProfile="tiny" version="1.2" viewBox="0 0 320 221.279">
  <!-- Generator: Adobe Illustrator 29.0.0, SVG Export Plug-In . SVG Version: 2.1.0 Build 186)  -->
  <g id="takeaway">
    <g>
      <rect x="18.674" y="24.475" width="282.652" height="172.846" rx="9.5" ry="9.5" fill="#fff"/>
      <path d="M291.826,24.975c4.963,0,9,4.037,9,9v153.846c0,4.963-4.037,9-9,9H28.174c-4.963,0-9-4.037-9-9V33.975c0-4.963,4.037-9,9-9h263.652M291.826,23.975H28.174c-5.523,0-10,4.477-10,10v153.846c0,5.523,4.477,10,10,10h263.652c5.523,0,10-4.477,10-10V33.975c0-5.523-4.477-10-10-10h0Z" fill="#fc6600"/>
    </g>
    <g>
      <path d="M28.174,76.181c-5.222,0-9.471-4.249-9.471-9.471v-32.735c0-5.222,4.249-9.471,9.471-9.471h263.652c5.223,0,9.471,4.249,9.471,9.471v42.207H28.174Z" fill="#fc6600"/>
      <path d="M291.826,25.032c4.931,0,8.942,4.011,8.942,8.942v41.677H28.174c-4.931,0-8.942-4.011-8.942-8.942v-32.735c0-4.931,4.011-8.942,8.942-8.942h263.652M291.826,23.975H28.174c-5.523,0-10,4.477-10,10v32.735c0,5.523,4.477,10,10,10h273.652v-42.735c0-5.523-4.477-10-10-10h0Z" fill="#fc6600"/>
    </g>
    <g>
      <rect x="18.674" y="24.475" width="52.643" height="51.735" rx="9.5" ry="9.5" fill="#fff"/>
      <path d="M61.817,24.975c4.963,0,9,4.037,9,9v32.735c0,4.963-4.037,9-9,9H28.174c-4.963,0-9-4.037-9-9v-32.735c0-4.963,4.037-9,9-9h33.643M61.817,23.975H28.174c-5.523,0-10,4.477-10,10v32.735c0,5.523,4.477,10,10,10h33.643c5.523,0,10-4.477,10-10v-32.735c0-5.523-4.477-10-10-10h0Z" fill="#fc6600"/>
    </g>
    <g>
      <path d="M57.91,46.944c0-7.63-6.617-13.715-14.426-12.829-5.797.658-10.533,5.304-11.289,11.089-.725,5.541,2.071,10.497,6.456,12.975,1.092.617,1.816,1.724,1.816,2.978v4.837c0,.587.476,1.063,1.063,1.063h6.932c.587,0,1.063-.476,1.063-1.063v-4.903c0-1.217.704-2.291,1.766-2.885,3.948-2.207,6.62-6.418,6.62-11.263Z" fill="#fc6600"/>
      <path d="M48.162,39.062s3.64.74,5.614,5.182" fill="none" stroke="#fff" stroke-linecap="round" stroke-miterlimit="10" stroke-width="2"/>
      <line x1="40.139" y1="63.291" x2="50.073" y2="63.291" fill="none" stroke="#fff" stroke-linecap="round" stroke-miterlimit="10" stroke-width="2"/>
    </g>
  </g>
</svg>
