<?xml version="1.0" encoding="UTF-8"?>
<svg id="g-AvalaraInfographic_Section10-large-img" xmlns="http://www.w3.org/2000/svg" baseProfile="tiny" version="1.2" viewBox="0 0 800 126.218">
  <!-- Generator: Adobe Illustrator 29.0.0, SVG Export Plug-In . SVG Version: 2.1.0 Build 186)  -->
  <g id="takeaway">
    <g>
      <rect x="40.298" y="20.959" width="719.403" height="84.3" rx="9.471" ry="9.471" fill="#fff"/>
      <path d="M750.231,21.488c4.931,0,8.942,4.011,8.942,8.942v65.358c0,4.931-4.011,8.942-8.942,8.942H49.769c-4.931,0-8.942-4.011-8.942-8.942V30.43c0-4.931,4.011-8.942,8.942-8.942h700.462M750.231,20.43H49.769c-5.523,0-10,4.477-10,10v65.358c0,5.523,4.477,10,10,10h700.462c5.523,0,10-4.477,10-10V30.43c0-5.523-4.477-10-10-10h0Z" fill="#fc6600"/>
    </g>
    <path d="M97.531,20.43h172.848v84.148H97.531c-5.666,0-10.265-4.6-10.265-10.265V30.696c0-5.666,4.6-10.265,10.265-10.265Z" fill="#fc6600"/>
    <g>
      <rect x="40.298" y="20.959" width="61.73" height="84.3" rx="9.471" ry="9.471" fill="#fff"/>
      <path d="M92.557,21.488c4.931,0,8.942,4.011,8.942,8.942v65.358c0,4.931-4.011,8.942-8.942,8.942h-42.788c-4.931,0-8.942-4.011-8.942-8.942V30.43c0-4.931,4.011-8.942,8.942-8.942h42.788M92.557,20.43h-42.788c-5.523,0-10,4.477-10,10v65.358c0,5.523,4.477,10,10,10h42.788c5.523,0,10-4.477,10-10V30.43c0-5.523-4.477-10-10-10h0Z" fill="#fc6600"/>
    </g>
    <g>
      <path d="M86.28,56.984c0-8.931-7.745-16.053-16.885-15.016-6.785.77-12.328,6.208-13.214,12.979-.848,6.486,2.424,12.287,7.557,15.187,1.278.722,2.126,2.018,2.126,3.486v5.662c0,.687.557,1.244,1.244,1.244h8.113c.687,0,1.244-.557,1.244-1.244v-5.738c0-1.424.824-2.682,2.067-3.377,4.621-2.583,7.749-7.512,7.749-13.183Z" fill="#fc6600"/>
      <path d="M74.869,47.759s4.261.867,6.571,6.066" fill="none" stroke="#fff" stroke-linecap="round" stroke-miterlimit="10" stroke-width="1.94"/>
      <line x1="65.479" y1="76.118" x2="77.106" y2="76.118" fill="none" stroke="#fff" stroke-linecap="round" stroke-miterlimit="10" stroke-width="1.94"/>
    </g>
    <g>
      <rect x="40.269" y="20.93" width="719.461" height="84.358" rx="9.5" ry="9.5" fill="#fff"/>
      <path d="M750.231,21.43c4.963,0,9,4.037,9,9v65.358c0,4.963-4.037,9-9,9H49.769c-4.963,0-9-4.037-9-9V30.43c0-4.963,4.037-9,9-9h700.462M750.231,20.43H49.769c-5.523,0-10,4.477-10,10v65.358c0,5.523,4.477,10,10,10h700.462c5.523,0,10-4.477,10-10V30.43c0-5.523-4.477-10-10-10h0Z" fill="#fc6600"/>
    </g>
    <path d="M97.531,20.43h178.047v84.148H97.531c-5.666,0-10.265-4.6-10.265-10.265V30.696c0-5.666,4.6-10.265,10.265-10.265Z" fill="#fc6600"/>
    <g>
      <rect x="40.269" y="20.93" width="61.788" height="84.358" rx="9.5" ry="9.5" fill="#fff"/>
      <path d="M92.557,21.43c4.963,0,9,4.037,9,9v65.358c0,4.963-4.037,9-9,9h-42.788c-4.963,0-9-4.037-9-9V30.43c0-4.963,4.037-9,9-9h42.788M92.557,20.43h-42.788c-5.523,0-10,4.477-10,10v65.358c0,5.523,4.477,10,10,10h42.788c5.523,0,10-4.477,10-10V30.43c0-5.523-4.477-10-10-10h0Z" fill="#fc6600"/>
    </g>
    <g>
      <path d="M86.28,56.984c0-8.931-7.745-16.053-16.885-15.016-6.785.77-12.328,6.208-13.214,12.979-.848,6.486,2.424,12.287,7.557,15.187,1.278.722,2.126,2.018,2.126,3.486v5.662c0,.687.557,1.244,1.244,1.244h8.113c.687,0,1.244-.557,1.244-1.244v-5.738c0-1.424.824-2.682,2.067-3.377,4.621-2.583,7.749-7.512,7.749-13.183Z" fill="#fc6600"/>
      <path d="M74.869,47.759s4.261.867,6.571,6.066" fill="none" stroke="#fff" stroke-linecap="round" stroke-miterlimit="10" stroke-width="2"/>
      <line x1="65.479" y1="76.118" x2="77.106" y2="76.118" fill="none" stroke="#fff" stroke-linecap="round" stroke-miterlimit="10" stroke-width="2"/>
    </g>
  </g>
</svg>
