<?xml version="1.0" encoding="UTF-8"?>
<svg id="g-AvalaraInfographic_Section15-small-img" xmlns="http://www.w3.org/2000/svg" baseProfile="tiny" version="1.2" viewBox="0 0 320 188.957">
  <!-- Generator: Adobe Illustrator 29.0.0, SVG Export Plug-In . SVG Version: 2.1.0 Build 186)  -->
  <g id="takeaway">
    <g>
      <rect x="18.703" y="20.508" width="282.594" height="144.686" rx="9.471" ry="9.471" fill="#fff"/>
      <path d="M291.826,21.037c4.931,0,8.942,4.011,8.942,8.942v125.744c0,4.931-4.011,8.942-8.942,8.942H28.174c-4.931,0-8.942-4.011-8.942-8.942V29.979c0-4.931,4.011-8.942,8.942-8.942h263.652M291.826,19.979H28.174c-5.523,0-10,4.477-10,10v125.744c0,5.523,4.477,10,10,10h263.652c5.523,0,10-4.477,10-10V29.979c0-5.523-4.477-10-10-10h0Z" fill="#fc6600"/>
    </g>
    <g>
      <path d="M28.174,72.186c-5.222,0-9.471-4.249-9.471-9.471V29.979c0-5.222,4.249-9.471,9.471-9.471h263.652c5.223,0,9.471,4.249,9.471,9.471v42.207H28.174Z" fill="#fc6600"/>
      <path d="M291.826,21.037c4.931,0,8.942,4.011,8.942,8.942v41.677H28.174c-4.931,0-8.942-4.011-8.942-8.942V29.979c0-4.931,4.011-8.942,8.942-8.942h263.652M291.826,19.979H28.174c-5.523,0-10,4.477-10,10v32.735c0,5.523,4.477,10,10,10h273.652V29.979c0-5.523-4.477-10-10-10h0Z" fill="#fc6600"/>
    </g>
    <g>
      <rect x="18.703" y="20.508" width="52.585" height="51.678" rx="9.471" ry="9.471" fill="#fff"/>
      <path d="M61.817,21.037c4.931,0,8.942,4.011,8.942,8.942v32.735c0,4.931-4.011,8.942-8.942,8.942H28.174c-4.931,0-8.942-4.011-8.942-8.942V29.979c0-4.931,4.011-8.942,8.942-8.942h33.643M61.817,19.979H28.174c-5.523,0-10,4.477-10,10v32.735c0,5.523,4.477,10,10,10h33.643c5.523,0,10-4.477,10-10V29.979c0-5.523-4.477-10-10-10h0Z" fill="#fc6600"/>
    </g>
    <g>
      <path d="M57.91,42.948c0-7.63-6.617-13.715-14.426-12.829-5.797.658-10.533,5.304-11.289,11.089-.725,5.541,2.071,10.497,6.456,12.975,1.092.617,1.816,1.724,1.816,2.978v4.837c0,.587.476,1.063,1.063,1.063h6.932c.587,0,1.063-.476,1.063-1.063v-4.903c0-1.217.704-2.291,1.766-2.885,3.948-2.207,6.62-6.418,6.62-11.263Z" fill="#fc6600"/>
      <path d="M48.162,35.067s3.64.74,5.614,5.182" fill="none" stroke="#fff" stroke-linecap="round" stroke-miterlimit="10" stroke-width="1.94"/>
      <line x1="40.139" y1="59.295" x2="50.073" y2="59.295" fill="none" stroke="#fff" stroke-linecap="round" stroke-miterlimit="10" stroke-width="1.94"/>
    </g>
  </g>
</svg>
