<?xml version="1.0" encoding="UTF-8"?>
<svg id="g-AvalaraInfographic_Section15-large-img" xmlns="http://www.w3.org/2000/svg" baseProfile="tiny" version="1.2" viewBox="0 0 800 149.195">
  <!-- Generator: Adobe Illustrator 29.0.0, SVG Export Plug-In . SVG Version: 2.1.0 Build 186)  -->
  <g id="takeaway">
    <g>
      <rect x="40.269" y="32.919" width="719.461" height="84.357" rx="9.5" ry="9.5" fill="#fff"/>
      <path d="M750.231,33.419c4.963,0,9,4.037,9,9v65.358c0,4.963-4.037,9-9,9H49.769c-4.963,0-9-4.037-9-9V42.419c0-4.963,4.037-9,9-9h700.462M750.231,32.419H49.769c-5.523,0-10,4.477-10,10v65.358c0,5.523,4.477,10,10,10h700.462c5.523,0,10-4.477,10-10V42.419c0-5.523-4.477-10-10-10h0Z" fill="#fc6600"/>
    </g>
    <path d="M97.531,32.419h177.848v84.148H97.531c-5.666,0-10.265-4.6-10.265-10.265v-63.617c0-5.666,4.6-10.265,10.265-10.265Z" fill="#fc6600"/>
    <g>
      <rect x="40.269" y="32.919" width="57.984" height="84.357" rx="9.5" ry="9.5" fill="#fff"/>
      <path d="M88.753,33.419c4.963,0,9,4.037,9,9v65.358c0,4.963-4.037,9-9,9h-38.984c-4.963,0-9-4.037-9-9V42.419c0-4.963,4.037-9,9-9h38.984M88.753,32.419h-38.984c-5.523,0-10,4.477-10,10v65.358c0,5.523,4.477,10,10,10h38.984c5.523,0,10-4.477,10-10V42.419c0-5.523-4.477-10-10-10h0Z" fill="#fc6600"/>
    </g>
    <g>
      <path d="M84.377,69.973c0-8.931-7.745-16.053-16.885-15.016-6.785.77-12.328,6.208-13.214,12.979-.848,6.486,2.424,12.287,7.557,15.187,1.278.722,2.126,2.018,2.126,3.486v5.662c0,.687.557,1.244,1.244,1.244h8.113c.687,0,1.244-.557,1.244-1.244v-5.738c0-1.424.824-2.682,2.067-3.377,4.621-2.583,7.749-7.512,7.749-13.183Z" fill="#fc6600"/>
      <path d="M72.967,60.748s4.261.867,6.571,6.066" fill="none" stroke="#fff" stroke-linecap="round" stroke-miterlimit="10" stroke-width="2"/>
      <line x1="63.576" y1="89.107" x2="75.204" y2="89.107" fill="none" stroke="#fff" stroke-linecap="round" stroke-miterlimit="10" stroke-width="2"/>
    </g>
  </g>
</svg>
